{
  "accessors": [
    {
      "bufferView": 2,
      "componentType": 5126,
      "count": 31889,
      "max": [
        988.45208740234375,
        989.98077392578125,
        992.07781982421875
      ],
      "min": [
        -990.7958984375,
        -995.30401611328125,
        -990.01593017578125
      ],
      "type": "VEC3"
    },
    {
      "bufferView": 2,
      "byteOffset": 382668,
      "componentType": 5126,
      "count": 31889,
      "max": [
        0.99996519088745117,
        0.99995040893554688,
        0.99998617172241211
      ],
      "min": [
        -0.99998438358306885,
        -0.99981611967086792,
        -0.99997550249099731
      ],
      "type": "VEC3"
    },
    {
      "bufferView": 1,
      "componentType": 5126,
      "count": 31889,
      "max": [
        1.3392640352249146,
        0.96604198217391968
      ],
      "min": [
        -0.00021899999410379678,
        0.033101998269557953
      ],
      "type": "VEC2"
    },
    {
      "bufferView": 0,
      "componentType": 5125,
      "count": 190464,
      "max": [
        31888
      ],
      "min": [
        0
      ],
      "type": "SCALAR"
    }
  ],
  "asset": {
    "extras": {
      "author": "altaistudio (https://sketchfab.com/altaistudio)",
      "license": "CC-BY-4.0 (http://creativecommons.org/licenses/by/4.0/)",
      "source": "https://sketchfab.com/3d-models/earth-model-9ac27256cd7240f0a5142fbd52f0832c",
      "title": "Earth Model"
    },
    "generator": "Sketchfab-9.16.0",
    "version": "2.0"
  },
  "bufferViews": [
    {
      "buffer": 0,
      "byteLength": 761856,
      "byteOffset": 0,
      "name": "floatBufferViews",
      "target": 34963
    },
    {
      "buffer": 0,
      "byteLength": 255112,
      "byteOffset": 761856,
      "byteStride": 8,
      "name": "floatBufferViews",
      "target": 34962
    },
    {
      "buffer": 0,
      "byteLength": 765336,
      "byteOffset": 1016968,
      "byteStride": 12,
      "name": "floatBufferViews",
      "target": 34962
    }
  ],
  "buffers": [
    {
      "byteLength": 1782304,
      "uri": "scene.bin"
    }
  ],
  "images": [
    {
      "uri": "textures/dunya_baseColor.jpeg"
    },
    {
      "uri": "textures/dunya_metallicRoughness.png"
    }
  ],
  "materials": [
    {
      "doubleSided": true,
      "emissiveFactor": [
        0,
        0,
        0
      ],
      "name": "dunya",
      "pbrMetallicRoughness": {
        "baseColorFactor": [
          1,
          1,
          1,
          1
        ],
        "baseColorTexture": {
          "index": 0,
          "texCoord": 0
        },
        "metallicFactor": 0.32893940318714487,
        "metallicRoughnessTexture": {
          "index": 1,
          "texCoord": 0
        },
        "roughnessFactor": 1
      }
    }
  ],
  "meshes": [
    {
      "name": "dunya_dunya_0",
      "primitives": [
        {
          "attributes": {
            "NORMAL": 1,
            "POSITION": 0,
            "TEXCOORD_0": 2
          },
          "indices": 3,
          "material": 0,
          "mode": 4
        }
      ]
    }
  ],
  "nodes": [
    {
      "children": [
        1
      ],
      "name": "RootNode (gltf orientation matrix)",
      "rotation": [
        -0.70710678118654746,
        -0,
        -0,
        0.70710678118654757
      ]
    },
    {
      "children": [
        2
      ],
      "matrix": [
        1,
        0,
        0,
        0,
        0,
        1,
        0,
        0,
        0,
        0,
        1,
        0,
        -0.22059419751167297,
        0.039240587502717972,
        -0.27929583191871643,
        1
      ],
      "name": "RootNode (model correction matrix)"
    },
    {
      "children": [
        3
      ],
      "matrix": [
        1,
        0,
        0,
        0,
        0,
        0,
        1,
        0,
        0,
        -1,
        0,
        0,
        0,
        0,
        0,
        1
      ],
      "name": "6bfbe48dd6af4404bb38e94d1b764de2.fbx"
    },
    {
      "children": [
        4
      ],
      "name": "RootNode"
    },
    {
      "children": [
        5
      ],
      "matrix": [
        0.0693545192480087,
        1.1473742742977722e-25,
        -2.0669257416727752e-09,
        0,
        -2.0669257416727752e-09,
        0,
        -0.0693545192480087,
        0,
        -1.1473742742977722e-25,
        0.069354519248008728,
        0,
        0,
        -0.014226972125470638,
        0.20995432138442993,
        0.038865748792886734,
        1
      ],
      "name": "dunya"
    },
    {
      "children": [
        6
      ],
      "matrix": [
        0.93624158657973056,
        0.20429771441315728,
        -0.2858568443193707,
        0,
        -0.34942092242792644,
        0.4560919401512375,
        -0.81846512515726466,
        0,
        -0.036833551665375858,
        0.86616544956182595,
        0.49839813749358458,
        0,
        0.20513388514518738,
        0.56039273738861084,
        -3.0272622108459473,
        1
      ],
      "name": ""
    },
    {
      "mesh": 0,
      "name": "dunya_dunya_0"
    }
  ],
  "samplers": [
    {
      "magFilter": 9729,
      "minFilter": 9987,
      "wrapS": 10497,
      "wrapT": 10497
    }
  ],
  "scene": 0,
  "scenes": [
    {
      "name": "OSG_Scene",
      "nodes": [
        0
      ]
    }
  ],
  "textures": [
    {
      "sampler": 0,
      "source": 0
    },
    {
      "sampler": 0,
      "source": 1
    }
  ]
}

